<?xml version="1.0" encoding="UTF-8"?>
<!DOCTYPE svg PUBLIC "-//W3C//DTD SVG 1.1//EN" "http://www.w3.org/Graphics/SVG/1.1/DTD/svg11.dtd">
<!-- Creator: CorelDRAW -->
<svg xmlns="http://www.w3.org/2000/svg" xml:space="preserve" width="246.906mm" height="49.9474mm" version="1.1" style="shape-rendering:geometricPrecision; text-rendering:geometricPrecision; image-rendering:optimizeQuality; fill-rule:evenodd; clip-rule:evenodd"
viewBox="0 0 24689.54 4994.53"
 xmlns:xlink="http://www.w3.org/1999/xlink"
 xmlns:xodm="http://www.corel.com/coreldraw/odm/2003">
 <defs>
  <style type="text/css">
   <![CDATA[
    .fil2 {fill:#26F69A}
    .fil1 {fill:#2D92EC}
    .fil0 {fill:#5046E5}
    .fil3 {fill:#F6B541}
    .fil4 {fill:#F7572D}
    .fil5 {fill:black;fill-rule:nonzero}
   ]]>
  </style>
 </defs>
 <g id="Layer_x0020_1">
  <metadata id="CorelCorpID_0Corel-Layer"/>
  <g id="_105553186202784">
   <path class="fil0" d="M1.49 2125.5l-1.49 750.08c121.02,57.92 460.93,72.63 528.86,457.45 60.84,344.61 -92.11,949.29 575.96,1419.9 207.83,146.39 443.44,223.14 765.9,241.6 4.26,-1037.83 67.03,-719.06 -215.89,-843.64 -301.65,-132.84 -318.66,-396.85 -319.38,-680.4 -0.96,-379.25 -150.7,-791.31 -379.83,-942.93 105.41,-216.48 373.95,-396.56 379.97,-970.91 7.69,-734.51 230.22,-643.16 533.93,-776.13l4.75 -780.52c-625.72,19.56 -1023.64,361.83 -1216.88,785.04 -240.17,525.98 49.97,834.77 -299.96,1173.43 -89.94,87.01 -153.93,98.97 -258.26,130.26l-97.68 36.77z"/>
   <path class="fil0" d="M8462.53 2125.5l1.5 750.08c-121.02,57.92 -460.93,72.63 -528.86,457.45 -60.84,344.61 92.11,949.29 -575.96,1419.9 -207.83,146.39 -443.44,223.14 -765.91,241.6 -4.25,-1037.83 -67.02,-719.06 215.9,-843.64 301.65,-132.84 318.66,-396.85 319.37,-680.4 0.97,-379.25 150.71,-791.31 379.84,-942.93 -105.41,-216.48 -373.96,-396.56 -379.97,-970.91 -7.7,-734.51 -230.22,-643.16 -533.93,-776.13l-4.75 -780.52c625.71,19.56 1023.64,361.83 1216.88,785.04 240.17,525.98 -49.97,834.77 299.96,1173.43 89.93,87.01 153.93,98.97 258.26,130.26l97.67 36.77z"/>
   <rect class="fil1" x="2265.04" y="0" width="3937.08" height="775.25"/>
   <rect class="fil2" x="3434.02" y="1423.94" width="2773.33" height="775.25"/>
   <rect class="fil2" x="2253.72" y="1423.94" width="794.29" height="775.25"/>
   <rect class="fil3" x="5017.21" y="2818.31" width="1184.91" height="775.25"/>
   <rect class="fil3" x="3834.85" y="2818.31" width="794.29" height="775.25"/>
   <rect class="fil3" x="2253.72" y="2818.31" width="1184.91" height="775.25"/>
   <rect class="fil4" x="2253.72" y="4219.27" width="2384.12" height="775.25"/>
   <rect class="fil4" x="5031.06" y="4219.27" width="1171.66" height="775.25"/>
   <path class="fil5" d="M10087.45 1637.45l777.31 0 0 290.34 -777.31 0 0 -290.34zm27.27 663.63l878.69 0 0 300.32 -1249.3 0 0 -1612.98 1217.81 0 0 300.32 -847.2 0 0 1012.35zm1175.94 300.32l0 -1612.98 697.04 0c145.17,0 269.98,23.43 374.82,70.28 104.47,46.86 185.49,114.07 241.95,201.62 56.84,87.95 84.88,192.02 84.88,312.62 0,119.81 -28.04,223.13 -84.88,309.92 -56.46,86.42 -137.48,152.85 -241.95,199.32 -104.85,46.09 -229.65,69.13 -374.82,69.13l-489.66 0 166.68 -162.45 0 612.55 -374.06 0zm1026.55 0l-404.77 -586.05 399.78 0 407.85 586.05 -402.86 0zm-652.48 -571.85l-166.68 -175.88 470.46 0c114.45,0 200.08,-24.58 257.31,-74.13 57.61,-49.54 86.41,-118.28 86.41,-206.61 0,-88.72 -28.8,-157.84 -86.41,-207 -57.23,-49.16 -142.86,-73.36 -257.31,-73.36l-470.46 0 166.68 -177.04 0 914.02zm1320.33 571.85l0 -1612.98 697.04 0c145.17,0 269.98,23.43 374.82,70.28 104.47,46.86 185.49,114.07 241.95,201.62 56.84,87.95 84.88,192.02 84.88,312.62 0,119.81 -28.04,223.51 -84.88,311.08 -56.46,87.18 -137.48,154.38 -241.95,201.62 -104.85,47.24 -229.65,70.66 -374.82,70.66l-489.66 0 166.68 -167.44 0 612.55 -374.06 0zm374.06 -571.85l-166.68 -177.04 470.46 0c114.45,0 200.08,-24.58 257.31,-73.74 57.61,-49.16 86.41,-117.51 86.41,-205.84 0,-88.72 -28.8,-157.84 -86.41,-207 -57.23,-49.16 -142.86,-73.36 -257.31,-73.36l-470.46 0 166.68 -177.04 0 914.02zm2494.36 599.11c-128.65,0 -252.32,-17.28 -370.98,-51.85 -118.28,-34.18 -213.91,-79.12 -286.12,-133.64l126.73 -282.28c68.36,49.16 150.16,89.49 245.02,120.97 94.86,31.49 190.87,47.24 287.27,47.24 74.51,0 134.41,-7.3 179.35,-22.27 45.31,-14.6 78.73,-34.95 99.85,-61.07 21.12,-26.12 31.88,-55.69 31.88,-89.1 0,-43.02 -16.9,-77.2 -51.08,-102.93 -34.18,-25.73 -78.73,-46.85 -134.03,-62.99 -55.69,-16.13 -116.37,-31.49 -183.19,-45.7 -66.82,-14.59 -133.64,-32.26 -200.47,-53.38 -67.21,-21.13 -128.26,-48.39 -183.57,-82.58 -55.3,-33.79 -99.85,-78.73 -134.02,-134.41 -34.18,-55.69 -51.08,-126.73 -51.08,-212.76 0,-91.4 24.58,-175.12 74.12,-250.78 49.54,-75.66 124.81,-136.33 225.43,-181.65 101.01,-45.7 227.74,-68.36 380.59,-68.36 100.62,0 200.47,12.29 298.79,36.1 98.7,23.81 185.49,59.15 260.76,106l-116.37 282.66c-74.12,-42.63 -149.39,-74.12 -225.05,-94.48 -76.04,-20.74 -149.77,-30.72 -221.21,-30.72 -72.58,0 -131.72,8.06 -177.42,24.96 -45.7,16.52 -78.73,38.41 -99.09,66.06 -20.35,27.27 -30.72,57.99 -30.72,92.17 0,42.63 17.28,76.43 51.08,102.16 34.18,25.35 79.11,45.71 134.41,61.07 55.3,15.36 116.37,30.34 183.18,44.93 67.22,14.6 134.03,32.26 200.86,52.62 66.44,20.74 127.5,47.62 182.8,81.42 55.31,33.41 100.24,77.96 134.03,133.26 34.18,55.3 51.46,125.19 51.46,209.69 0,90.25 -24.96,172.81 -75.27,248.86 -49.93,75.66 -125.58,136.33 -226.21,182.03 -101,45.7 -228.12,68.75 -381.73,68.75zm726.22 -27.27l718.93 -1612.98 369.06 0 720.47 1612.98 -389.8 0 -591.81 -1422.88 148.24 0 -591.81 1422.88 -383.27 0zm361 -345.26l97.93 -283.04 831.07 0 99.09 283.04 -1028.09 0zm1617.2 345.26l0 -1612.98 697.04 0c145.17,0 269.98,23.43 374.82,70.28 104.47,46.86 185.49,114.07 241.95,201.62 56.84,87.95 84.88,192.02 84.88,312.62 0,119.81 -28.04,223.51 -84.88,311.08 -56.46,87.18 -137.48,154.38 -241.95,201.62 -104.85,47.24 -229.65,70.66 -374.82,70.66l-489.66 0 166.68 -167.44 0 612.55 -374.06 0zm374.06 -571.85l-166.68 -177.04 470.46 0c114.45,0 200.08,-24.58 257.31,-73.74 57.61,-49.16 86.41,-117.51 86.41,-205.84 0,-88.72 -28.8,-157.84 -86.41,-207 -57.23,-49.16 -142.86,-73.36 -257.31,-73.36l-470.46 0 166.68 -177.04 0 914.02zm1754.31 571.85l-697.43 -1612.98 404.4 0 606.78 1428.64 -236.57 0 617.16 -1428.64 370.59 0 -695.88 1612.98 -369.06 0zm1200.13 0l0 -1612.98 374.06 0 0 1308.05 807.26 0 0 304.93 -1181.32 0zm2137.97 27.27c-125.19,0 -241.18,-20.36 -347.56,-61.07 -106.77,-40.71 -199.32,-98.7 -277.67,-173.58 -78.35,-74.51 -139.02,-162.83 -182.8,-264.23 -43.78,-101.77 -65.29,-213.14 -65.29,-334.89 0,-121.73 21.51,-233.11 65.29,-334.89 43.78,-101.39 104.85,-189.71 183.57,-264.22 78.73,-74.89 171.66,-132.87 278.05,-173.58 106.77,-40.72 222.74,-61.07 347.95,-61.07 139.78,0 266.14,24.2 379.43,72.59 113.3,48.39 208.15,119.43 284.19,212.76l-238.87 221.59c-54.92,-62.99 -116.37,-110.23 -184.34,-142.48 -67.6,-31.87 -142.09,-48 -222.36,-48 -75.66,0 -144.4,12.67 -207.38,37.25 -62.61,24.96 -117.13,60.68 -163.22,106.38 -46.09,46.09 -81.42,101.01 -107.15,164.37 -25.35,63.37 -38.02,132.88 -38.02,209.3 0,76.43 12.67,145.94 38.02,209.31 25.73,63.37 61.06,118.28 107.15,164.36 46.09,45.71 100.62,81.43 163.22,106.39 62.98,24.58 131.72,37.25 207.38,37.25 80.27,0 154.76,-16.13 222.36,-48 67.98,-32.27 129.42,-80.27 184.34,-143.63l238.87 221.59c-76.04,92.56 -170.89,163.6 -284.19,212.76 -113.3,49.16 -240.03,73.74 -380.97,73.74z"/>
   <path class="fil5" d="M10085.23 4029.46c-48.89,0 -94.05,-8.3 -135.64,-24.91 -41.44,-16.61 -77.6,-39.96 -108.18,-70.2 -30.72,-30.24 -54.62,-65.81 -71.7,-106.4 -17.07,-40.58 -25.6,-85.08 -25.6,-133.49 0,-48.42 8.53,-92.92 25.6,-133.5 17.08,-40.58 41.14,-76.15 71.86,-106.4 30.88,-30.24 67.04,-53.59 108.64,-70.2 41.44,-16.61 86.76,-24.91 135.49,-24.91 47.8,0 92.34,7.99 133.61,24.13 41.28,15.98 76.51,40.12 105.53,72.24l-43.92 44.03c-26.69,-27.42 -56.18,-47.32 -88.61,-59.7 -32.29,-12.54 -67.06,-18.65 -103.99,-18.65 -39.42,0 -75.9,6.74 -109.41,20.53 -33.53,13.63 -62.71,32.75 -87.7,57.35 -24.83,24.6 -44.07,53.43 -57.88,86.65 -13.66,33.07 -20.49,69.26 -20.49,108.44 0,39.17 6.83,75.37 20.49,108.43 13.81,33.22 33.05,62.05 57.88,86.65 24.99,24.61 54.17,43.72 87.7,57.36 33.51,13.78 69.99,20.52 109.41,20.52 36.93,0 71.7,-6.27 103.99,-18.8 32.43,-12.54 61.92,-32.75 88.61,-60.49l43.92 44.04c-29.02,32.12 -64.25,56.41 -105.53,72.7 -41.28,16.46 -85.98,24.6 -134.08,24.6zm386.73 -5.95l0 -658.1 243.34 0c55.57,0 103.06,8.94 142.93,26.96 39.74,17.86 70.32,43.71 91.73,77.25 21.26,33.53 31.97,73.96 31.97,121.11 0,46.54 -10.71,86.5 -31.97,120.02 -21.41,33.54 -51.99,59.23 -91.73,77.25 -39.88,17.87 -87.37,26.96 -142.93,26.96l-205.62 0 30.41 -31.97 0 240.52 -68.13 0zm444.79 0l-167.76 -238.8 74.95 0 168.39 238.8 -75.58 0zm-376.66 -234.88l-30.41 -33.06 204.38 0c65.04,0 114.54,-14.57 148.36,-43.41 33.84,-28.99 50.75,-69.41 50.75,-121.43 0,-52.65 -16.91,-93.39 -50.75,-121.9 -33.83,-28.67 -83.33,-42.93 -148.36,-42.93l-204.38 0 30.41 -33.69 0 396.42zm666.87 -129.11l344.53 0 0 59.55 -344.53 0 0 -59.55zm6.67 303.52l392.17 0 0 60.48 -460.31 0 0 -658.1 446.8 0 0 60.49 -378.66 0 0 537.14zm450.53 60.48l297.97 -658.1 67.66 0 298.44 658.1 -72.63 0 -274.07 -617.98 28.25 0 -274.08 617.98 -71.54 0zm117.01 -175.49l20.48 -56.72 379.14 0 20.94 56.72 -420.56 0zm749.58 175.49l0 -597.61 -229.38 0 0 -60.49 527.04 0 0 60.49 -229.38 0 0 597.61 -68.28 0zm469.3 -363.99l344.53 0 0 59.55 -344.53 0 0 -59.55zm6.67 303.52l392.17 0 0 60.48 -460.3 0 0 -658.1 446.8 0 0 60.49 -378.67 0 0 537.14zm554.97 60.48l0 -658.1 265.24 0c69.53,0 130.51,13.95 182.96,42 52.46,27.89 93.28,66.59 122.45,115.95 29.33,49.36 43.92,106.4 43.92,171.11 0,64.71 -14.59,121.74 -43.92,171.1 -29.18,49.36 -70,88.06 -122.45,115.96 -52.45,28.04 -113.44,41.99 -182.96,41.99l-265.24 0zm68.14 -60.48l193.05 0c58.05,0 108.34,-11.44 150.85,-34.32 42.53,-22.88 75.43,-54.38 98.71,-94.8 23.43,-40.27 35.08,-86.81 35.08,-139.45 0,-53.12 -11.65,-99.66 -35.08,-139.77 -23.28,-40.11 -56.18,-71.61 -98.71,-94.48 -42.52,-22.88 -92.81,-34.32 -150.85,-34.32l-193.05 0 0 537.14zm1103.73 66.43c-42.21,0 -79.92,-7.05 -112.98,-21.15 -33.06,-14.26 -59.13,-33.85 -78.07,-58.92 -18.93,-25.07 -28.39,-54.21 -28.39,-87.59 0,-28.05 6.2,-53.75 18.62,-77.25 12.41,-23.51 32.43,-46.7 60.06,-69.58 27.78,-22.87 64.41,-47 110.19,-72.08 39.11,-21.93 69.84,-40.89 92.04,-56.88 22.18,-16.14 37.86,-31.49 47.02,-46.07 9.31,-14.57 13.97,-30.55 13.97,-47.63 0,-24.45 -8.23,-44.03 -24.68,-59.08 -16.3,-14.88 -39.89,-22.4 -70.46,-22.4 -32.59,0 -57.89,8.14 -75.89,24.75 -18.17,16.46 -27.16,38.08 -27.16,64.56 0,12.85 2.01,25.23 6.2,37.14 4.2,11.75 11.96,25.07 23.29,39.8 11.17,14.57 27,32.75 47.49,54.37l345.31 357.72 -38.34 44.19 -360.2 -373.07c-21.73,-22.72 -38.79,-42.78 -51.21,-60.17 -12.57,-17.4 -21.27,-34.01 -26.39,-49.83 -4.96,-15.67 -7.45,-32.13 -7.45,-49.05 0,-28.21 6.68,-52.81 20.03,-73.96 13.5,-21.15 32.58,-37.61 57.41,-49.2 24.84,-11.76 53.71,-17.71 86.92,-17.71 30.89,0 57.58,5.33 80.08,15.83 22.67,10.34 40.2,25.38 52.77,44.81 12.72,19.59 18.93,42.94 18.93,70.2 0,24.13 -5.74,46.38 -17.22,66.75 -11.49,20.53 -30.27,40.75 -56.34,60.65 -26.08,19.9 -61.31,41.99 -105.54,66.12 -39.42,21.94 -70.46,42 -92.96,60.17 -22.51,18.18 -38.33,35.89 -47.64,53.28 -9.17,17.55 -13.82,36.51 -13.82,57.19 0,23.51 6.68,44.19 19.87,62.06 13.19,17.86 31.65,31.65 55.4,41.52 23.74,9.72 51.38,14.57 82.88,14.57 43.3,0 82.1,-9.08 116.24,-27.26 34.14,-18.33 62.71,-45.91 85.98,-82.89 23.13,-37.14 40.05,-83.37 50.45,-139.14l53.85 17.08c-12.11,62.83 -32.6,115.48 -61.15,158.25 -28.56,42.78 -63.95,75.22 -106,97.15 -42.21,21.79 -89.86,32.75 -143.09,32.75zm888.95 0c-48.88,0 -95.44,-7.99 -139.67,-24.13 -44.07,-16.14 -78.53,-36.82 -103.04,-61.89l27.3 -53.28c23.29,22.57 54.17,41.68 92.82,56.88 38.64,15.36 79.46,23.04 122.29,23.04 40.81,0 74.02,-5.17 99.78,-15.52 25.77,-10.18 44.7,-24.28 56.97,-41.83 12.41,-17.71 18.47,-37.3 18.47,-58.92 0,-25.7 -7.14,-46.23 -21.73,-61.9 -14.59,-15.51 -33.68,-27.89 -57.59,-37.13 -23.74,-9.09 -49.82,-17.08 -78.37,-23.82 -28.4,-6.58 -56.96,-13.95 -85.52,-22.1 -28.71,-7.99 -54.78,-18.49 -78.68,-31.34 -23.75,-13 -42.83,-30.4 -57.42,-52.18 -14.59,-21.93 -21.89,-50.3 -21.89,-85.08 0,-32.44 8.54,-62.21 25.45,-89.63 17.08,-27.42 43.15,-49.36 78.53,-66.13 35.23,-16.77 80.56,-25.07 135.64,-25.07 36.78,0 73.41,5.17 109.42,15.51 36.16,10.5 67.2,25.07 93.27,43.56l-23.9 55c-27.47,-18.8 -56.96,-32.59 -88.15,-41.36 -31.36,-8.93 -61.61,-13.32 -90.79,-13.32 -39.27,0 -71.86,5.33 -97.31,16.14 -25.62,10.81 -44.4,25.23 -56.5,42.93 -11.94,17.87 -17.85,37.92 -17.85,60.17 0,25.86 7.14,46.7 21.73,62.21 14.59,15.52 33.68,27.89 57.58,36.83 23.75,9.08 49.98,16.92 78.53,23.81 28.56,6.9 57.12,14.26 85.67,22.41 28.4,7.99 54.48,18.34 78.38,31.03 23.74,12.85 42.83,29.93 57.42,51.55 14.59,21.62 21.88,49.52 21.88,83.68 0,31.96 -8.68,61.74 -25.92,89 -17.38,27.42 -43.91,49.52 -79.77,66.13 -36,16.45 -81.63,24.75 -137.03,24.75zm654.76 0c-83.18,0 -148.67,-24.13 -196.32,-72.7 -47.64,-48.58 -71.39,-120.02 -71.39,-214.51l0 -376.84 68.13 0 0 374.18c0,77.87 17.54,135.21 52.31,172.35 34.92,36.98 84.12,55.47 147.89,55.47 63.64,0 112.83,-18.49 147.75,-55.47 34.76,-37.14 52.29,-94.49 52.29,-172.35l0 -374.18 67.2 0 0 376.84c0,94.49 -23.9,165.93 -71.54,214.51 -47.65,48.57 -113.14,72.7 -196.32,72.7zm475.05 -5.95l0 -658.1 243.34 0c55.56,0 103.05,8.94 142.93,26.96 39.74,17.86 70.31,43.71 91.72,77.25 21.27,33.53 31.98,73.96 31.98,121.11 0,46.54 -10.71,86.66 -31.98,120.34 -21.41,33.69 -51.98,59.54 -91.72,77.41 -39.89,18.02 -87.38,26.95 -142.93,26.95l-205.63 0 30.42 -32.44 0 240.52 -68.13 0zm68.13 -234.88l-30.42 -33.69 204.39 0c65.03,0 114.54,-14.26 148.36,-43.09 33.83,-28.68 50.75,-69.1 50.75,-121.12 0,-52.65 -16.92,-93.39 -50.75,-121.9 -33.83,-28.67 -83.34,-42.93 -148.36,-42.93l-204.39 0 30.42 -33.69 0 396.42zm591.13 234.88l0 -658.1 243.34 0c55.56,0 103.05,8.94 142.93,26.96 39.74,17.86 70.31,43.71 91.73,77.25 21.26,33.53 31.97,73.96 31.97,121.11 0,46.54 -10.71,86.66 -31.97,120.34 -21.42,33.69 -51.99,59.54 -91.73,77.41 -39.89,18.02 -87.38,26.95 -142.93,26.95l-205.63 0 30.42 -32.44 0 240.52 -68.13 0zm68.13 -234.88l-30.42 -33.69 204.39 0c65.03,0 114.54,-14.26 148.36,-43.09 33.83,-28.68 50.75,-69.1 50.75,-121.12 0,-52.65 -16.92,-93.39 -50.75,-121.9 -33.83,-28.67 -83.34,-42.93 -148.36,-42.93l-204.39 0 30.42 -33.69 0 396.42zm884.91 240.83c-49.19,0 -94.67,-8.3 -136.41,-25.07 -41.75,-16.76 -78.07,-40.42 -108.95,-70.67 -30.72,-30.24 -54.78,-65.65 -71.86,-106.24 -17.07,-40.58 -25.6,-84.93 -25.6,-133.02 0,-48.11 8.53,-92.45 25.6,-133.03 17.08,-40.58 41.14,-76 72.02,-106.4 30.88,-30.24 67.04,-53.74 108.79,-70.51 41.6,-16.77 87.07,-25.07 136.25,-25.07 49.21,0 94.68,8.3 136.26,24.91 41.44,16.77 77.76,40.12 108.48,70.36 30.74,30.24 54.79,65.66 71.86,106.24 17.08,40.74 25.61,85.24 25.61,133.5 0,48.42 -8.53,92.92 -25.61,133.49 -17.07,40.59 -41.12,76 -71.86,106.24 -30.72,30.25 -67.04,53.59 -108.48,70.36 -41.59,16.61 -86.91,24.91 -136.1,24.91zm-0.16 -62.05c39.12,0 75.28,-6.74 108.49,-20.37 33.22,-13.63 62.24,-32.75 86.91,-57.51 24.68,-24.75 43.77,-53.59 57.58,-86.65 13.66,-33.06 20.49,-69.26 20.49,-108.59 0,-39.33 -6.83,-75.53 -20.49,-108.43 -13.65,-32.91 -32.9,-61.74 -57.58,-86.5 -24.67,-24.76 -53.54,-43.88 -86.91,-57.51 -33.21,-13.63 -69.37,-20.37 -108.49,-20.37 -39.11,0 -75.27,6.74 -108.64,20.37 -33.37,13.63 -62.39,32.91 -87.06,57.67 -24.68,24.75 -43.92,53.59 -57.73,86.49 -13.66,32.91 -20.49,69.11 -20.49,108.28 0,39.17 6.83,75.37 20.49,108.43 13.66,33.07 32.9,61.9 57.57,86.81 24.83,24.92 53.85,44.04 87.22,57.67 33.37,13.47 69.53,20.21 108.64,20.21zm496.77 56.1l0 -658.1 243.34 0c55.57,0 103.06,8.94 142.94,26.96 39.73,17.86 70.31,43.71 91.72,77.25 21.27,33.53 31.97,73.96 31.97,121.11 0,46.54 -10.7,86.5 -31.97,120.02 -21.41,33.54 -51.99,59.23 -91.72,77.25 -39.89,17.87 -87.38,26.96 -142.94,26.96l-205.62 0 30.41 -31.97 0 240.52 -68.13 0zm444.79 0l-167.76 -238.8 74.96 0 168.38 238.8 -75.58 0zm-376.66 -234.88l-30.41 -33.06 204.39 0c65.03,0 114.53,-14.57 148.36,-43.41 33.83,-28.99 50.75,-69.41 50.75,-121.43 0,-52.65 -16.92,-93.39 -50.75,-121.9 -33.84,-28.67 -83.34,-42.93 -148.36,-42.93l-204.39 0 30.41 -33.69 0 396.42zm722.74 234.88l0 -597.61 -229.37 0 0 -60.49 527.03 0 0 60.49 -229.38 0 0 597.61 -68.28 0zm469.31 -363.99l344.52 0 0 59.55 -344.52 0 0 -59.55zm6.66 303.52l392.18 0 0 60.48 -460.31 0 0 -658.1 446.8 0 0 60.49 -378.67 0 0 537.14zm554.98 60.48l0 -658.1 265.23 0c69.53,0 130.51,13.95 182.96,42 52.47,27.89 93.28,66.59 122.45,115.95 29.33,49.36 43.92,106.4 43.92,171.11 0,64.71 -14.59,121.74 -43.92,171.1 -29.18,49.36 -69.99,88.06 -122.45,115.96 -52.45,28.04 -113.44,41.99 -182.96,41.99l-265.23 0zm68.13 -60.48l193.06 0c58.05,0 108.33,-11.44 150.84,-34.32 42.53,-22.88 75.44,-54.38 98.71,-94.8 23.43,-40.27 35.08,-86.81 35.08,-139.45 0,-53.12 -11.65,-99.66 -35.08,-139.77 -23.27,-40.11 -56.18,-71.61 -98.71,-94.48 -42.52,-22.88 -92.8,-34.32 -150.84,-34.32l-193.06 0 0 537.14zm945.44 60.48l0 -658.1 281.06 0c72.32,0 128.65,14.73 168.69,44.19 40.2,29.46 60.22,71.14 60.22,124.88 0,35.57 -8.23,65.66 -24.83,90.26 -16.45,24.44 -38.65,42.93 -66.74,55.62 -28.09,12.54 -59.13,18.96 -93.12,18.96l16.29 -22.87c41.6,0 77.45,6.42 107.72,19.43 30.11,13 53.54,32.28 70.15,57.66 16.6,25.54 24.83,56.88 24.83,94.18 0,55.94 -20.33,99.19 -60.99,129.89 -40.82,30.55 -101.97,45.91 -183.59,45.91l-299.69 0zm68.13 -57.35l230 0c57.58,0 101.65,-9.87 131.91,-29.62 30.27,-19.74 45.47,-51.24 45.47,-94.17 0,-42.94 -15.2,-74.28 -45.47,-94.18 -30.27,-19.9 -74.34,-29.77 -131.91,-29.77l-236.66 0 0 -57.19 214.93 0c52.31,0 92.82,-10.03 121.51,-29.93 28.87,-19.9 43.3,-49.67 43.3,-89.32 0,-39.64 -14.43,-69.57 -43.3,-89.47 -28.7,-19.9 -69.21,-29.78 -121.51,-29.78l-208.27 0 0 543.41zm775.19 57.35l0 -244.75 15.68 43.4 -276.24 -456.75 73.56 0 242.73 401.13 -39.12 0 243.35 -401.13 68.9 0 -276.39 456.75 15.83 -43.4 0 244.75 -68.3 0zm680.68 0l0 -658.1 281.06 0c72.32,0 128.65,14.73 168.69,44.19 40.2,29.46 60.22,71.14 60.22,124.88 0,35.57 -8.23,65.66 -24.83,90.26 -16.45,24.44 -38.65,42.93 -66.74,55.62 -28.09,12.54 -59.13,18.96 -93.12,18.96l16.29 -22.87c41.6,0 77.45,6.42 107.71,19.43 30.11,13 53.55,32.28 70.16,57.66 16.6,25.54 24.83,56.88 24.83,94.18 0,55.94 -20.34,99.19 -60.99,129.89 -40.82,30.55 -101.97,45.91 -183.59,45.91l-299.69 0zm68.13 -57.35l230 0c57.58,0 101.65,-9.87 131.91,-29.62 30.27,-19.74 45.47,-51.24 45.47,-94.17 0,-42.94 -15.2,-74.28 -45.47,-94.18 -30.27,-19.9 -74.34,-29.77 -131.91,-29.77l-236.66 0 0 -57.19 214.93 0c52.31,0 92.82,-10.03 121.51,-29.93 28.87,-19.9 43.3,-49.67 43.3,-89.32 0,-39.64 -14.43,-69.57 -43.3,-89.47 -28.7,-19.9 -69.21,-29.78 -121.51,-29.78l-208.27 0 0 543.41zm916.89 63.3c-48.89,0 -94.06,-8.3 -135.64,-24.91 -41.45,-16.61 -77.61,-39.96 -108.18,-70.2 -30.73,-30.24 -54.62,-65.81 -71.7,-106.4 -17.08,-40.58 -25.6,-85.08 -25.6,-133.49 0,-48.42 8.52,-92.92 25.6,-133.5 17.08,-40.58 41.13,-76.15 71.86,-106.4 30.88,-30.24 67.04,-53.59 108.64,-70.2 41.44,-16.61 86.75,-24.91 135.48,-24.91 47.8,0 92.34,7.99 133.61,24.13 41.28,15.98 76.52,40.12 105.54,72.24l-43.92 44.03c-26.69,-27.42 -56.18,-47.32 -88.62,-59.7 -32.28,-12.54 -67.05,-18.65 -103.98,-18.65 -39.42,0 -75.9,6.74 -109.42,20.53 -33.52,13.63 -62.7,32.75 -87.69,57.35 -24.83,24.6 -44.08,53.43 -57.88,86.65 -13.66,33.07 -20.5,69.26 -20.5,108.44 0,39.17 6.84,75.37 20.5,108.43 13.8,33.22 33.05,62.05 57.88,86.65 24.99,24.61 54.17,43.72 87.69,57.36 33.52,13.78 70,20.52 109.42,20.52 36.93,0 71.7,-6.27 103.98,-18.8 32.44,-12.54 61.93,-32.75 88.62,-60.49l43.92 44.04c-29.02,32.12 -64.26,56.41 -105.54,72.7 -41.28,16.46 -85.98,24.6 -134.07,24.6zm386.73 -5.95l0 -658.1 68.13 0 0 658.1 -68.13 0z"/>
   <path class="fil5" d="M14663.48 2629.4c-59.35,0 -109.9,-21.98 -151.65,-61.54 -41.77,-39.56 -61.55,-90.12 -61.55,-153.85 0,-63.74 19.78,-114.3 61.55,-153.85 41.76,-39.56 92.31,-57.15 151.65,-57.15 59.34,0 109.9,17.59 151.65,57.15 41.76,39.56 61.54,90.12 61.54,153.85 0,63.74 -19.78,114.3 -61.54,153.85 -41.76,39.56 -92.32,61.54 -151.65,61.54z"/>
  </g>
 </g>
</svg>
